<?xml version="1.0" encoding="utf-8"?>
<!-- Generator: Adobe Illustrator 16.0.0, SVG Export Plug-In . SVG Version: 6.00 Build 0)  -->
<!DOCTYPE svg PUBLIC "-//W3C//DTD SVG 1.1//EN" "http://www.w3.org/Graphics/SVG/1.1/DTD/svg11.dtd">
<svg version="1.1" id="Layer_1" xmlns="http://www.w3.org/2000/svg" xmlns:xlink="http://www.w3.org/1999/xlink" x="0px" y="0px"
	 width="144px" height="86.4px" viewBox="0 0 144 86.4" enable-background="new 0 0 144 86.4" xml:space="preserve">
<rect y="0" fill="none" width="144" height="86.401"/>
<g>
	<path opacity="0.6" fill="#565656" d="M134.889,80.003c0.001,1.936-1.568,3.51-3.508,3.51L7.165,83.559
		c-1.938,0-3.509-1.572-3.509-3.51L3.631,12.174c0-1.939,1.571-3.51,3.509-3.512l124.215-0.043c1.94,0,3.512,1.571,3.51,3.507
		L134.889,80.003z"/>
	
		<linearGradient id="SVGID_1_" gradientUnits="userSpaceOnUse" x1="21.6875" y1="98.8816" x2="117.1503" y2="-10.4388" gradientTransform="matrix(0.9507 0.3102 -0.3102 0.9507 17.7611 -20.462)">
		<stop  offset="0.2512" style="stop-color:#5C87C4"/>
		<stop  offset="1" style="stop-color:#ABE1F9"/>
	</linearGradient>
	<path fill="url(#SVGID_1_)" d="M140.369,74.225c0,1.938-1.57,3.51-3.508,3.51L12.646,77.78c-1.938,0-3.51-1.572-3.51-3.51
		L9.112,6.396c-0.001-1.938,1.57-3.51,3.509-3.512l124.215-0.042c1.939-0.001,3.509,1.57,3.509,3.508L140.369,74.225z"/>
	<g>
		<g>
			<path fill="#FFFFFF" d="M37.332,30.777l-14.295,0.006c-2.338,0.002-4.242-1.9-4.242-4.241l-0.003-7.95
				c-0.001-2.338,1.9-4.242,4.24-4.243l14.294-0.005c2.337,0,4.24,1.901,4.241,4.24l0.003,7.953
				C41.57,28.873,39.669,30.776,37.332,30.777z M23.031,15.811c-1.532,0.001-2.777,1.246-2.778,2.78l0.002,7.953
				c0.001,1.532,1.249,2.777,2.781,2.777l14.294-0.004c1.532-0.001,2.777-1.248,2.776-2.781l-0.002-7.953
				c0-1.531-1.247-2.776-2.779-2.777L23.031,15.811z"/>
		</g>
		<g>
			<path fill="#FFFFFF" d="M36.801,69.206L20.95,69.212c-0.323,0-0.585-0.258-0.585-0.586c0-0.322,0.26-0.58,0.584-0.584
				l15.852-0.002c0.324-0.004,0.586,0.262,0.586,0.58C37.386,68.944,37.125,69.21,36.801,69.206z"/>
		</g>
		<g>
			<path fill="#FFFFFF" d="M72.159,58.417c-0.111-0.002-0.223-0.031-0.32-0.094c-0.271-0.178-0.346-0.541-0.168-0.813l5.575-8.531
				c0.178-0.268,0.538-0.342,0.811-0.168c0.27,0.178,0.345,0.539,0.167,0.811l-5.575,8.527
				C72.537,58.323,72.349,58.415,72.159,58.417z"/>
		</g>
		<g>
			<path fill="#FFFFFF" d="M72.734,69.19l-30.119,0.016c-0.325,0-0.586-0.262-0.586-0.586c0-0.322,0.262-0.586,0.585-0.584
				l30.117-0.012c0.325-0.002,0.588,0.262,0.588,0.584S73.057,69.194,72.734,69.19z"/>
		</g>
		<g>
			<path fill="#FFFFFF" d="M23.059,43.087c0,0.974-0.788,1.763-1.762,1.765c-0.974-0.002-1.764-0.787-1.765-1.762
				c0.001-0.975,0.79-1.767,1.763-1.766C22.27,41.323,23.06,42.112,23.059,43.087z"/>
			<circle fill="#FFFFFF" cx="26.767" cy="43.086" r="1.764"/>
			<path fill="#FFFFFF" d="M34.002,43.084c0,0.975-0.789,1.764-1.763,1.765c-0.974-0.001-1.763-0.788-1.764-1.764
				c0-0.974,0.79-1.759,1.762-1.763C33.213,41.318,34.003,42.11,34.002,43.084z"/>
			<circle fill="#FFFFFF" cx="37.711" cy="43.082" r="1.764"/>
		</g>
		<g>
			<circle fill="#FFFFFF" cx="60.949" cy="53.717" r="1.764"/>
		</g>
		<g>
			<path fill="#FFFFFF" d="M68.535,53.714c-0.002,0.973-0.791,1.764-1.765,1.766c-0.975,0-1.765-0.789-1.764-1.766
				c-0.001-0.971,0.788-1.762,1.762-1.762C67.745,51.95,68.532,52.741,68.535,53.714z"/>
		</g>
		<g>
			<circle fill="#FFFFFF" cx="80.977" cy="53.71" r="1.764"/>
		</g>
		<g>
			<path fill="#FFFFFF" d="M88.562,53.708c0,0.973-0.788,1.764-1.764,1.764c-0.974,0-1.763-0.789-1.765-1.762
				c-0.001-0.975,0.788-1.766,1.765-1.764C87.769,51.944,88.56,52.733,88.562,53.708z"/>
		</g>
		<g>
			<circle fill="#FFFFFF" cx="50.974" cy="43.078" r="1.763"/>
			<circle fill="#FFFFFF" cx="56.446" cy="43.076" r="1.763"/>
			<circle fill="#FFFFFF" cx="61.917" cy="43.075" r="1.763"/>
			<circle fill="#FFFFFF" cx="67.388" cy="43.073" r="1.763"/>
		</g>
		<g>
			<circle fill="#FFFFFF" cx="81.417" cy="43.068" r="1.764"/>
			<circle fill="#FFFFFF" cx="86.889" cy="43.066" r="1.764"/>
			<circle fill="#FFFFFF" cx="92.361" cy="43.064" r="1.764"/>
			<circle fill="#FFFFFF" cx="97.833" cy="43.063" r="1.764"/>
		</g>
		<g>
			<path fill="#FFFFFF" d="M114.965,43.057c0,0.973-0.787,1.764-1.762,1.764s-1.766-0.789-1.766-1.762
				c0-0.977,0.791-1.765,1.764-1.766C114.176,41.293,114.965,42.084,114.965,43.057z"/>
			<circle fill="#FFFFFF" cx="118.673" cy="43.056" r="1.764"/>
			<path fill="#FFFFFF" d="M125.909,43.053c0,0.974-0.788,1.763-1.763,1.764s-1.765-0.789-1.766-1.762
				c0.001-0.977,0.79-1.767,1.765-1.766C125.119,41.288,125.909,42.08,125.909,43.053z"/>
			<circle fill="#FFFFFF" cx="129.617" cy="43.052" r="1.765"/>
		</g>
	</g>
</g>
</svg>
