<?xml version="1.0" encoding="utf-8"?>
<!-- Generator: Adobe Illustrator 16.0.0, SVG Export Plug-In . SVG Version: 6.00 Build 0)  -->
<!DOCTYPE svg PUBLIC "-//W3C//DTD SVG 1.1//EN" "http://www.w3.org/Graphics/SVG/1.1/DTD/svg11.dtd">
<svg version="1.1" id="Layer_1" xmlns="http://www.w3.org/2000/svg" xmlns:xlink="http://www.w3.org/1999/xlink" x="0px" y="0px"
	 width="144px" height="86.4px" viewBox="0 0 144 86.4" enable-background="new 0 0 144 86.4" xml:space="preserve">
<g>
	<path opacity="0.6" fill="#575757" d="M136.828,80.12c0,1.98-1.604,3.59-3.586,3.592L6.196,83.86
		c-1.983,0.004-3.591-1.602-3.592-3.582L2.521,10.856C2.517,8.873,4.124,7.264,6.106,7.262L133.15,7.113
		c1.984-0.003,3.594,1.603,3.594,3.584L136.828,80.12z"/>
	
		<linearGradient id="SVGID_1_" gradientUnits="userSpaceOnUse" x1="8.4512" y1="105.4854" x2="126.8038" y2="4.0402" gradientTransform="matrix(0.984 0.1779 -0.1779 0.984 13.7829 -22.8153)">
		<stop  offset="0.2512" style="stop-color:#6A2F8F"/>
		<stop  offset="1" style="stop-color:#DE7CB2"/>
	</linearGradient>
	<path fill="url(#SVGID_1_)" d="M141.48,75.548c0.002,1.98-1.602,3.59-3.584,3.592L10.851,79.29
		c-1.984,0.002-3.593-1.605-3.595-3.584L7.175,6.283C7.172,4.302,8.778,2.692,10.759,2.69l127.045-0.149
		c1.984-0.002,3.594,1.603,3.594,3.585L141.48,75.548z"/>
	<g>
		<g>
			<path fill="#FFFFFF" d="M36.058,31.198l-14.619,0.017c-2.394,0.005-4.34-1.94-4.343-4.331l-0.009-8.135
				c-0.002-2.391,1.94-4.338,4.332-4.342l14.621-0.016c2.391-0.004,4.338,1.939,4.343,4.331l0.008,8.133
				C40.392,29.246,38.448,31.196,36.058,31.198z M21.419,15.903c-1.566,0.001-2.839,1.278-2.839,2.845l0.009,8.133
				c0.002,1.568,1.28,2.841,2.846,2.839l14.62-0.017c1.567-0.003,2.841-1.276,2.838-2.847l-0.011-8.132
				c0-1.566-1.276-2.841-2.845-2.839L21.419,15.903z"/>
		</g>
		<g>
			<path fill="#FFFFFF" d="M35.548,70.503l-16.212,0.018c-0.331,0-0.6-0.268-0.599-0.598c-0.001-0.328,0.265-0.598,0.596-0.6
				l16.213-0.018c0.332-0.002,0.6,0.266,0.6,0.596C36.147,70.233,35.879,70.501,35.548,70.503z"/>
		</g>
		<g>
			<path fill="#FFFFFF" d="M71.702,59.437c-0.113,0-0.226-0.031-0.326-0.098c-0.278-0.182-0.356-0.551-0.175-0.828l5.695-8.73
				c0.182-0.275,0.553-0.352,0.83-0.172c0.275,0.18,0.354,0.551,0.172,0.826l-5.695,8.73C72.089,59.341,71.898,59.437,71.702,59.437
				z"/>
		</g>
		<g>
			<path fill="#FFFFFF" d="M72.299,70.46l-30.805,0.035c-0.331,0-0.597-0.266-0.599-0.6c-0.001-0.33,0.267-0.598,0.596-0.596
				l30.805-0.037c0.331-0.002,0.6,0.266,0.601,0.598C72.897,70.19,72.63,70.46,72.299,70.46z"/>
		</g>
		<g>
			<circle fill="#FFFFFF" cx="19.667" cy="43.803" r="1.803"/>
			<circle fill="#FFFFFF" cx="25.262" cy="43.796" r="1.803"/>
			<circle fill="#FFFFFF" cx="30.859" cy="43.79" r="1.804"/>
			<circle fill="#FFFFFF" cx="36.455" cy="43.783" r="1.804"/>
		</g>
		<g>
			<circle fill="#FFFFFF" cx="60.233" cy="54.64" r="1.803"/>
		</g>
		<g>
			<circle fill="#FFFFFF" cx="66.187" cy="54.632" r="1.804"/>
		</g>
		<g>
			<circle fill="#FFFFFF" cx="80.716" cy="54.615" r="1.804"/>
		</g>
		<g>
			<path fill="#FFFFFF" d="M88.475,54.606c0,0.996-0.805,1.807-1.803,1.805c-0.996,0.002-1.805-0.805-1.805-1.801
				c-0.002-0.996,0.805-1.807,1.803-1.805C87.664,52.802,88.473,53.608,88.475,54.606z"/>
		</g>
		<g>
			<circle fill="#FFFFFF" cx="50.022" cy="43.768" r="1.804"/>
			<circle fill="#FFFFFF" cx="55.618" cy="43.761" r="1.804"/>
			<circle fill="#FFFFFF" cx="61.214" cy="43.755" r="1.803"/>
			<path fill="#FFFFFF" d="M68.614,43.747c0.001,0.994-0.805,1.801-1.803,1.803c-0.994,0.004-1.804-0.805-1.804-1.799
				c-0.003-0.995,0.805-1.805,1.801-1.807C67.805,41.943,68.614,42.751,68.614,43.747z"/>
		</g>
		<g>
			<circle fill="#FFFFFF" cx="81.16" cy="43.731" r="1.805"/>
			<circle fill="#FFFFFF" cx="86.756" cy="43.724" r="1.805"/>
			<circle fill="#FFFFFF" cx="92.352" cy="43.718" r="1.804"/>
			<path fill="#FFFFFF" d="M99.752,43.709c0.002,0.995-0.807,1.804-1.803,1.806c-0.996,0-1.803-0.805-1.805-1.802
				c0-0.995,0.805-1.805,1.801-1.804C98.941,41.905,99.752,42.714,99.752,43.709z"/>
		</g>
		<g>
			<path fill="#FFFFFF" d="M115.473,43.69c0,0.998-0.807,1.803-1.803,1.805s-1.805-0.805-1.807-1.799
				c0-0.998,0.809-1.807,1.803-1.809C114.662,41.888,115.473,42.694,115.473,43.69z"/>
			<circle fill="#FFFFFF" cx="119.264" cy="43.687" r="1.805"/>
			<circle fill="#FFFFFF" cx="124.86" cy="43.68" r="1.805"/>
			<path fill="#FFFFFF" d="M132.262,43.672c0,0.993-0.805,1.802-1.801,1.804c-0.998,0.002-1.807-0.805-1.809-1.801
				c0-0.996,0.807-1.805,1.803-1.804C131.453,41.867,132.258,42.676,132.262,43.672z"/>
		</g>
	</g>
</g>
<rect fill="none" width="144" height="86.401"/>
</svg>
