<?xml version="1.0" encoding="utf-8"?>
<!-- Generator: Adobe Illustrator 16.0.0, SVG Export Plug-In . SVG Version: 6.00 Build 0)  -->
<!DOCTYPE svg PUBLIC "-//W3C//DTD SVG 1.1//EN" "http://www.w3.org/Graphics/SVG/1.1/DTD/svg11.dtd">
<svg version="1.1" id="Layer_1" xmlns="http://www.w3.org/2000/svg" xmlns:xlink="http://www.w3.org/1999/xlink" x="0px" y="0px"
	 width="144px" height="86.4px" viewBox="0 0 144 86.4" enable-background="new 0 0 144 86.4" xml:space="preserve">
<g>
	<path opacity="0.6" fill="#575757" enable-background="new    " d="M137.688,78.149c0,1.914-1.611,3.467-3.6,3.467H6.658
		c-1.988,0-3.601-1.553-3.601-3.467V11.083c0-1.915,1.612-3.468,3.601-3.468h127.43c1.988,0,3.6,1.553,3.6,3.468V78.149z"/>
	
		<linearGradient id="SVGID_1_" gradientUnits="userSpaceOnUse" x1="8.6387" y1="6.6785" x2="137.9114" y2="81.3141" gradientTransform="matrix(1 0 0 -1 0 87.3999)">
		<stop  offset="0.3695" style="stop-color:#F05688"/>
		<stop  offset="1" style="stop-color:#FDC140"/>
	</linearGradient>
	<path fill="url(#SVGID_1_)" d="M140.943,78.016c0,1.988-1.611,3.6-3.602,3.6H9.913c-1.988,0-3.601-1.61-3.601-3.6V8.384
		c0-1.988,1.612-3.6,3.601-3.6h127.431c1.988,0,3.6,1.611,3.6,3.6V78.016L140.943,78.016z"/>
	<g>
		<g>
			<path fill="#FFFFFF" d="M35.253,33.407H20.588c-2.398,0-4.351-1.951-4.351-4.35v-8.159c0-2.397,1.952-4.35,4.351-4.35h14.665
				c2.397,0,4.35,1.952,4.35,4.35v8.159C39.602,31.457,37.651,33.407,35.253,33.407z M20.588,18.049
				c-1.572,0-2.851,1.278-2.851,2.85v8.159c0,1.572,1.278,2.85,2.851,2.85h14.665c1.57,0,2.85-1.277,2.85-2.85v-8.159
				c0-1.571-1.278-2.85-2.85-2.85H20.588z"/>
		</g>
		<g>
			<path fill="#FFFFFF" d="M34.696,72.832H18.434c-0.332,0-0.601-0.271-0.601-0.603c0-0.33,0.269-0.6,0.601-0.6h16.262
				c0.332,0,0.601,0.27,0.601,0.6C35.295,72.561,35.028,72.832,34.696,72.832z"/>
		</g>
		<g>
			<path fill="#FFFFFF" d="M70.971,61.774c-0.112,0-0.227-0.03-0.328-0.098c-0.277-0.182-0.354-0.555-0.173-0.832l5.725-8.751
				c0.182-0.275,0.553-0.354,0.83-0.172c0.275,0.18,0.354,0.554,0.174,0.831l-5.725,8.75C71.36,61.678,71.168,61.774,70.971,61.774z
				"/>
		</g>
		<g>
			<path fill="#FFFFFF" d="M71.557,72.832H40.659c-0.331,0-0.6-0.271-0.6-0.603c0-0.33,0.269-0.6,0.6-0.6h30.898
				c0.332,0,0.601,0.27,0.601,0.6C72.158,72.561,71.889,72.832,71.557,72.832z"/>
		</g>
		<g>
			<circle fill="#FFFFFF" cx="18.797" cy="46.031" r="1.809"/>
			<circle fill="#FFFFFF" cx="24.41" cy="46.031" r="1.809"/>
			<circle fill="#FFFFFF" cx="30.024" cy="46.031" r="1.809"/>
			<circle fill="#FFFFFF" cx="35.637" cy="46.031" r="1.809"/>
		</g>
		<g>
			<circle fill="#FFFFFF" cx="59.474" cy="56.948" r="1.809"/>
		</g>
		<g>
			<circle fill="#FFFFFF" cx="65.445" cy="56.948" r="1.81"/>
		</g>
		<g>
			<circle fill="#FFFFFF" cx="80.021" cy="56.948" r="1.81"/>
		</g>
		<g>
			<circle fill="#FFFFFF" cx="85.99" cy="56.948" r="1.81"/>
		</g>
		<g>
			<circle fill="#FFFFFF" cx="49.245" cy="46.031" r="1.81"/>
			<circle fill="#FFFFFF" cx="54.857" cy="46.031" r="1.81"/>
			<circle fill="#FFFFFF" cx="60.47" cy="46.031" r="1.81"/>
			<circle fill="#FFFFFF" cx="66.084" cy="46.031" r="1.81"/>
		</g>
		<g>
			<circle fill="#FFFFFF" cx="80.479" cy="46.031" r="1.81"/>
			<circle fill="#FFFFFF" cx="86.09" cy="46.031" r="1.81"/>
			<circle fill="#FFFFFF" cx="91.703" cy="46.031" r="1.81"/>
			<circle fill="#FFFFFF" cx="97.316" cy="46.031" r="1.81"/>
		</g>
		<g>
			<circle fill="#FFFFFF" cx="113.084" cy="46.031" r="1.81"/>
			<circle fill="#FFFFFF" cx="118.697" cy="46.031" r="1.809"/>
			<circle fill="#FFFFFF" cx="124.311" cy="46.031" r="1.809"/>
			<circle fill="#FFFFFF" cx="129.924" cy="46.031" r="1.809"/>
		</g>
	</g>
</g>
<rect y="0" fill="none" width="144" height="86.401"/>
</svg>
