<?xml version="1.0" encoding="utf-8"?>
<!-- Generator: Adobe Illustrator 16.0.0, SVG Export Plug-In . SVG Version: 6.00 Build 0)  -->
<!DOCTYPE svg PUBLIC "-//W3C//DTD SVG 1.1//EN" "http://www.w3.org/Graphics/SVG/1.1/DTD/svg11.dtd">
<svg version="1.1" id="Layer_1" xmlns="http://www.w3.org/2000/svg" xmlns:xlink="http://www.w3.org/1999/xlink" x="0px" y="0px"
	 width="144px" height="86.4px" viewBox="0 0 144 86.4" enable-background="new 0 0 144 86.4" xml:space="preserve">
<g>
	<path opacity="0.6" fill="#575757" enable-background="new    " d="M134.207,77.927c0.004,1.909-1.563,3.46-3.502,3.463
		L6.541,81.635c-1.938,0.002-3.512-1.541-3.515-3.45L2.893,11.35C2.89,9.442,4.459,7.89,6.396,7.887l124.165-0.245
		c1.938-0.004,3.511,1.54,3.515,3.449L134.207,77.927z"/>
	
		<linearGradient id="SVGID_1_" gradientUnits="userSpaceOnUse" x1="-35.7158" y1="-13.1296" x2="94.0983" y2="61.8186" gradientTransform="matrix(0.9913 -0.1315 -0.1315 -0.9913 48.3531 71.0685)">
		<stop  offset="0.2611" style="stop-color:#5BBA4C"/>
		<stop  offset="1" style="stop-color:#75CBC9"/>
	</linearGradient>
	<path fill="url(#SVGID_1_)" d="M141.107,77.594c0.003,1.977-1.596,3.584-3.575,3.588L10.793,81.428
		c-1.978,0.006-3.584-1.596-3.589-3.572L7.07,8.602c-0.005-1.979,1.595-3.584,3.573-3.588l126.742-0.25
		c1.978-0.004,3.582,1.596,3.586,3.574L141.107,77.594z"/>
	<g>
		<g>
			<path fill="#FDEB03" d="M35.901,33.433l-14.584,0.031c-2.386,0.005-4.332-1.934-4.336-4.319l-0.015-8.114
				c-0.004-2.385,1.931-4.33,4.318-4.335l14.584-0.027c2.384-0.006,4.329,1.932,4.335,4.317L40.22,29.1
				C40.225,31.484,38.286,33.428,35.901,33.433z M21.286,18.187c-1.562,0.002-2.831,1.276-2.83,2.84l0.015,8.113
				c0.004,1.563,1.28,2.833,2.843,2.83l14.583-0.028c1.564-0.003,2.833-1.277,2.829-2.841l-0.015-8.114
				c-0.003-1.563-1.277-2.831-2.841-2.829L21.286,18.187z"/>
		</g>
		<g>
			<path fill="#FFFFFF" d="M35.426,72.644l-16.174,0.031c-0.33,0-0.598-0.268-0.598-0.596c0-0.33,0.265-0.599,0.596-0.599
				l16.173-0.032c0.332,0,0.599,0.266,0.598,0.596C36.022,72.375,35.755,72.643,35.426,72.644z"/>
		</g>
		<g>
			<path fill="#FFFFFF" d="M71.484,61.576c-0.113,0-0.227-0.03-0.328-0.097c-0.276-0.18-0.353-0.55-0.173-0.826l5.674-8.713
				c0.181-0.274,0.55-0.354,0.826-0.175c0.274,0.181,0.354,0.55,0.174,0.826l-5.676,8.713
				C71.868,61.479,71.678,61.575,71.484,61.576z"/>
		</g>
		<g>
			<path fill="#FFFFFF" d="M72.088,72.571l-30.73,0.062c-0.332,0-0.599-0.267-0.599-0.598c-0.001-0.329,0.266-0.597,0.596-0.597
				l30.731-0.063c0.329,0,0.598,0.268,0.598,0.598C72.684,72.302,72.418,72.571,72.088,72.571z"/>
		</g>
		<g>
			<circle fill="#FFFFFF" cx="19.561" cy="46.022" r="1.8"/>
			<circle fill="#FFFFFF" cx="25.143" cy="46.01" r="1.8"/>
			<circle fill="#FFFFFF" cx="30.726" cy="45.999" r="1.8"/>
			<circle fill="#FFFFFF" cx="36.309" cy="45.989" r="1.8"/>
		</g>
		<g>
			<circle fill="#FFFFFF" cx="60.038" cy="56.8" r="1.8"/>
		</g>
		<g>
			<path fill="#FFFFFF" d="M67.777,56.784c0.001,0.994-0.803,1.802-1.796,1.804c-0.994,0.002-1.802-0.802-1.802-1.796
				c-0.004-0.993,0.801-1.801,1.795-1.804S67.775,55.791,67.777,56.784z"/>
		</g>
		<g>
			<circle fill="#FFFFFF" cx="80.473" cy="56.76" r="1.799"/>
		</g>
		<g>
			<circle fill="#FFFFFF" cx="86.41" cy="56.747" r="1.799"/>
		</g>
		<g>
			<circle fill="#FFFFFF" cx="49.842" cy="45.962" r="1.8"/>
			<circle fill="#FFFFFF" cx="55.424" cy="45.95" r="1.8"/>
			<circle fill="#FFFFFF" cx="61.008" cy="45.94" r="1.8"/>
			<circle fill="#FFFFFF" cx="66.591" cy="45.929" r="1.799"/>
		</g>
		<g>
			<circle fill="#FFFFFF" cx="80.905" cy="45.901" r="1.801"/>
			<circle fill="#FFFFFF" cx="86.488" cy="45.889" r="1.8"/>
			<path fill="#FFFFFF" d="M93.871,45.876c0.002,0.992-0.803,1.801-1.799,1.804c-0.991,0.002-1.799-0.802-1.801-1.796
				c-0.002-0.993,0.802-1.803,1.795-1.805C93.061,44.077,93.868,44.883,93.871,45.876z"/>
			<circle fill="#FFFFFF" cx="97.654" cy="45.868" r="1.799"/>
		</g>
		<g>
			<circle fill="#FFFFFF" cx="113.336" cy="45.836" r="1.799"/>
			<circle fill="#FFFFFF" cx="118.919" cy="45.825" r="1.799"/>
			<circle fill="#FFFFFF" cx="124.502" cy="45.814" r="1.799"/>
			<circle fill="#FFFFFF" cx="130.085" cy="45.803" r="1.799"/>
		</g>
	</g>
</g>
<rect y="0" fill="none" width="144" height="86.401"/>
</svg>
