<?xml version="1.0" encoding="utf-8"?>
<!-- Generator: Adobe Illustrator 16.0.0, SVG Export Plug-In . SVG Version: 6.00 Build 0)  -->
<!DOCTYPE svg PUBLIC "-//W3C//DTD SVG 1.1//EN" "http://www.w3.org/Graphics/SVG/1.1/DTD/svg11.dtd">
<svg version="1.1" id="Layer_2" xmlns="http://www.w3.org/2000/svg" xmlns:xlink="http://www.w3.org/1999/xlink" x="0px" y="0px"
	 width="288px" height="288px" viewBox="0 0 288 288" enable-background="new 0 0 288 288" xml:space="preserve">
<g>
	<g>
		<path fill="#FDA885" d="M114.077,129.691c7.576-7.761,5.858-20.496,4.173-20.771c0,0-3.309-6.167-6.573-4.749
			c-3.263,1.417-3.816,5.589-3.816,5.589L114.077,129.691z"/>
		<g>
			<path fill="#3C34C0" d="M137.22,203.782c0.592,1.898-0.49,3.925-2.417,4.525l-71.717,22.367c-1.926,0.601-3.968-0.451-4.56-2.35
				L12.305,80.122c-0.592-1.898,0.49-3.923,2.416-4.524l71.717-22.367c1.927-0.601,3.968,0.45,4.56,2.348L137.22,203.782z"/>
			<g>
				<path fill="#FFFFFF" d="M135.101,209.263l-15.435,4.814c-0.527,0.163-1.088-0.13-1.253-0.658
					c-0.165-0.525,0.13-1.087,0.657-1.252l15.436-4.813c1.397-0.437,2.186-1.904,1.759-3.272L90.043,55.877
					c-0.427-1.369-1.911-2.127-3.308-1.692L15.019,76.552c-1.396,0.437-2.186,1.904-1.759,3.272L45.151,182.08
					c0.165,0.527-0.129,1.088-0.657,1.253c-0.527,0.164-1.088-0.131-1.252-0.658L11.35,80.42c-0.754-2.421,0.624-5.013,3.074-5.777
					L86.14,52.276c2.45-0.764,5.057,0.584,5.813,3.006l46.222,148.203C138.929,205.907,137.551,208.499,135.101,209.263z"/>
			</g>
			<path fill="#402EFE" d="M132.045,198.56c0.592,1.898-0.467,3.917-2.365,4.509l-65.357,20.384
				c-1.898,0.592-3.917-0.467-4.509-2.365L17.838,86.499c-0.591-1.898,0.468-3.917,2.366-4.508l65.357-20.384
				c1.898-0.592,3.917,0.467,4.509,2.365L132.045,198.56z"/>
			
				<rect x="53.598" y="160.202" transform="matrix(0.9546 -0.2977 0.2977 0.9546 -51.5319 29.4805)" fill="#3140FF" width="34.81" height="47.379"/>
			
				<rect x="97.225" y="148.256" transform="matrix(0.9546 -0.2977 0.2977 0.9546 -46.2373 40.3446)" fill="#3140FF" width="24.173" height="47.378"/>
			
				<rect x="40.281" y="138.523" transform="matrix(0.9546 -0.2977 0.2977 0.9546 -38.3361 27.0582)" fill="#3140FF" width="58.741" height="1.692"/>
			
				<rect x="43.694" y="151.504" transform="matrix(0.9546 -0.2977 0.2977 0.9546 -42.6542 24.6833)" fill="#3140FF" width="31.998" height="1.692"/>
		</g>
		<path fill="#FDA885" d="M101.982,288c0,0-77.641-0.034-77.037-0.033c0.604,0.002,8.013-37.073,8.013-37.073
			s-4.979-12.044-8.641-21.9c-3.662-9.854-4.903-8.067-8.5-31.14c-3.597-23.072-3.615-17.708-2.263-26.487
			c1.359-8.826,2.431-7.967,3.6-11.912c1.169-3.944,3.992-20.021,9.992-19.52c5.807,0.485,10.763,17.838,8.321,25.398
			c-2.44,7.56-2.513,14.381,1.754,18.448c4.268,4.068,4.475-0.396,5.912-2.844l11.832,43.699c0,0,0.424,8.414,10.454,5.312
			c10.029-3.103,51.503-15.014,51.503-15.014s-0.31,12.47-16.242,33.835L101.982,288z"/>
		<path fill="#FDA885" d="M117.508,137.247c0,0,7.084-2.035,11.376,0.826c4.291,2.86,3.992,5.752,3.889,7.985
			c-0.103,2.231-0.057,9.215-0.057,9.215s5.53,2.074,5.516,5.479c-0.014,3.403-1.034,16.118-3.99,17.24c0,0,7.867,2.045,7.62,8.521
			c-0.248,6.475-2.221,10.005-6.555,8.757c-4.333-1.248-5.508-1.694-4.994-6.454s2.328-8.664,0.113-10.173
			c-2.215-1.508-5.109-0.475-6.924-4.485c-1.93-4.263,1.896-12.003,1.896-12.003s-7.855-2.025-7.856-7.023
			c-0.001-4.998-0.364-10.007,0.438-11.457C118.781,142.224,118.375,140.004,117.508,137.247z"/>
		<path fill="none" stroke="#E28A64" stroke-linecap="round" stroke-linejoin="round" stroke-miterlimit="10" d="M26.603,141.625
			c0,0-2.582,13.667-5.622,14.997c-3.039,1.33-3.114,0.053-3.114,0.053"/>
		<path fill="none" stroke="#E28A64" stroke-linecap="round" stroke-linejoin="round" stroke-miterlimit="10" d="M38.577,184.883
			c0,0,5.752,4.774,7.457,6.768"/>
		<path fill="none" stroke="#E28A64" stroke-miterlimit="10" d="M13.555,171.366c0,0,3.975,0.686,5.652,2.219"/>
		<path fill="none" stroke="#E28A64" stroke-miterlimit="10" d="M12.988,174.872c0,0,4.395,0.006,6.063,0.408"/>
		<path fill="none" stroke="#E28A64" stroke-linecap="round" stroke-linejoin="round" stroke-miterlimit="10" d="M69.792,228.626
			c0,0,1.703,7.128,1.419,8.416c0,0,4.863-8.623,8.855-10.615"/>
		<path fill="none" stroke="#E28A64" stroke-linecap="round" stroke-linejoin="round" stroke-miterlimit="10" d="M120.92,155.89
			c0,0,0.18-9.228,3.959-10.18c3.78-0.953,5.835,0.558,6.08,2.066c0.244,1.51-1.225,10.233-1.225,10.233
			S123.459,158.947,120.92,155.89z"/>
		<path fill="none" stroke="#E28A64" stroke-linecap="round" stroke-linejoin="round" stroke-miterlimit="10" d="M126.197,172.218
			c0,0,3.43-8.244,6.982-7.746c3.553,0.498,2.957,4.76,2.627,5.882c-0.329,1.122-1.374,4.532-1.856,5.235
			C133.469,176.291,127.917,175.192,126.197,172.218z"/>
		<path fill="none" stroke="#E28A64" stroke-linecap="round" stroke-linejoin="round" stroke-miterlimit="10" d="M134.29,185.095
			c0,0,2.156-3.616,4.895-2.094c2.741,1.525,0.971,6.379,0.971,6.379S135.437,185.869,134.29,185.095z"/>
		<path fill="none" stroke="#E28A64" stroke-linecap="round" stroke-linejoin="round" stroke-miterlimit="10" d="M124.994,161.54
			c-0.918,2.426-2.152,7.953-1.853,11.039c0.453,4.658,5.294,5.768,8.2,5.777"/>
		<path fill="none" stroke="#E28A64" stroke-linecap="round" stroke-linejoin="round" stroke-miterlimit="10" d="M118.485,142.438
			c-0.802,1.451-1.571,7.732-0.944,12.691c1.098,8.689,10.667,5.704,10.667,5.704"/>
		<path fill="none" stroke="#E28A64" stroke-linecap="round" stroke-linejoin="round" stroke-miterlimit="10" d="M134.739,194.555
			c-4.333-1.247-4.435-2.216-3.92-6.974c0.285-2.629,0.601-4.656,0.453-6.2"/>
	</g>
	<g>
		<path opacity="0.6" fill="#565656" d="M118.081,110.181c0.39,1.196-0.262,2.483-1.459,2.874l-76.685,25.054
			c-1.196,0.392-2.484-0.262-2.874-1.458l-13.69-41.903c-0.391-1.197,0.263-2.484,1.459-2.875l76.685-25.053
			c1.197-0.391,2.484,0.263,2.874,1.458L118.081,110.181z"/>
		<linearGradient id="SVGID_1_" gradientUnits="userSpaceOnUse" x1="39.6079" y1="135.9707" x2="101.6079" y2="64.9706">
			<stop  offset="0.2512" style="stop-color:#5C87C4"/>
			<stop  offset="1" style="stop-color:#ABE1F9"/>
		</linearGradient>
		<path fill="url(#SVGID_1_)" d="M120.301,105.509c0.39,1.196-0.262,2.483-1.459,2.874l-76.685,25.054
			c-1.196,0.392-2.484-0.262-2.874-1.458l-13.69-41.903c-0.391-1.197,0.263-2.484,1.459-2.875l76.685-25.053
			c1.197-0.391,2.484,0.263,2.874,1.458L120.301,105.509z"/>
		<g>
			<g>
				<path fill="#FFFFFF" d="M47.929,99.443l-8.825,2.884c-1.443,0.472-3.002-0.319-3.474-1.763l-1.604-4.909
					c-0.472-1.443,0.318-3.001,1.763-3.473l8.825-2.883c1.443-0.471,3.001,0.319,3.473,1.763l1.604,4.91
					C50.163,97.414,49.372,98.972,47.929,99.443z M36.084,93.084c-0.945,0.309-1.463,1.329-1.155,2.276l1.604,4.91
					c0.31,0.946,1.331,1.463,2.277,1.154l8.824-2.882c0.946-0.31,1.463-1.331,1.154-2.277l-1.604-4.91
					c-0.309-0.945-1.329-1.463-2.276-1.155L36.084,93.084z"/>
			</g>
			<g>
				<path fill="#FFFFFF" d="M55.344,123.277l-9.786,3.197c-0.2,0.065-0.414-0.044-0.479-0.244c-0.064-0.199,0.043-0.413,0.243-0.479
					l9.786-3.196c0.2-0.066,0.415,0.043,0.479,0.242C55.653,122.998,55.544,123.212,55.344,123.277z"/>
			</g>
			<g>
				<path fill="#FFFFFF" d="M75,109.491c-0.068,0.023-0.143,0.025-0.216,0.006c-0.203-0.055-0.322-0.263-0.268-0.466l1.724-6.391
					c0.056-0.202,0.264-0.321,0.467-0.268c0.202,0.055,0.322,0.264,0.267,0.466l-1.725,6.391
					C75.215,109.357,75.119,109.453,75,109.491z"/>
			</g>
			<g>
				<path fill="#FFFFFF" d="M77.527,116.03l-18.593,6.075c-0.201,0.065-0.414-0.043-0.48-0.243
					c-0.065-0.201,0.044-0.415,0.243-0.479l18.594-6.075c0.2-0.065,0.415,0.043,0.48,0.244
					C77.835,115.75,77.727,115.965,77.527,116.03z"/>
			</g>
			<g>
				<circle fill="#FFFFFF" cx="40.508" cy="110.276" r="1.145"/>
				<circle fill="#FFFFFF" cx="43.886" cy="109.172" r="1.145"/>
				<circle fill="#FFFFFF" cx="47.265" cy="108.069" r="1.145"/>
				<circle fill="#FFFFFF" cx="50.642" cy="106.965" r="1.146"/>
			</g>
			<g>
				<circle fill="#FFFFFF" cx="67.133" cy="108.848" r="1.145"/>
			</g>
			<g>
				<circle fill="#FFFFFF" cx="70.726" cy="107.674" r="1.145"/>
			</g>
			<g>
				<circle fill="#FFFFFF" cx="79.497" cy="104.809" r="1.146"/>
			</g>
			<g>
				<circle fill="#FFFFFF" cx="83.09" cy="103.635" r="1.145"/>
			</g>
			<g>
				<circle fill="#FFFFFF" cx="58.831" cy="104.29" r="1.145"/>
				<circle fill="#FFFFFF" cx="62.208" cy="103.186" r="1.145"/>
				<circle fill="#FFFFFF" cx="65.586" cy="102.083" r="1.145"/>
				<circle fill="#FFFFFF" cx="68.964" cy="100.979" r="1.145"/>
			</g>
			<g>
				<circle fill="#FFFFFF" cx="77.625" cy="98.149" r="1.146"/>
				<circle fill="#FFFFFF" cx="81.003" cy="97.046" r="1.146"/>
				<circle fill="#FFFFFF" cx="84.381" cy="95.943" r="1.145"/>
				<circle fill="#FFFFFF" cx="87.759" cy="94.839" r="1.145"/>
			</g>
			<g>
				<circle fill="#FFFFFF" cx="97.247" cy="91.739" r="1.146"/>
				<circle fill="#FFFFFF" cx="100.625" cy="90.635" r="1.146"/>
				<circle fill="#FFFFFF" cx="104.004" cy="89.532" r="1.146"/>
				<circle fill="#FFFFFF" cx="107.382" cy="88.428" r="1.146"/>
			</g>
		</g>
	</g>
	<g>
		<path opacity="0.6" fill="#565656" d="M165.072,95.408c0.264,1.45-0.697,2.841-2.148,3.104l-92.971,16.921
			c-1.451,0.265-2.841-0.698-3.104-2.148l-9.247-50.803c-0.264-1.45,0.698-2.841,2.149-3.105l92.971-16.921
			c1.451-0.264,2.841,0.698,3.104,2.148L165.072,95.408z"/>
		<linearGradient id="SVGID_2_" gradientUnits="userSpaceOnUse" x1="67.6748" y1="114.8091" x2="155.7077" y2="39.3523">
			<stop  offset="0.2512" style="stop-color:#692C90"/>
			<stop  offset="1" style="stop-color:#DF7BB1"/>
		</linearGradient>
		<path fill="url(#SVGID_2_)" d="M167.875,91.446c0.264,1.45-0.698,2.841-2.149,3.104l-92.971,16.921
			c-1.451,0.265-2.841-0.698-3.104-2.148l-9.247-50.803c-0.264-1.45,0.698-2.841,2.149-3.105l92.971-16.921
			c1.451-0.264,2.841,0.698,3.104,2.148L167.875,91.446z"/>
		<g>
			<g>
				<path fill="#FFFFFF" d="M84.841,72.935l-10.698,1.948c-1.75,0.319-3.434-0.846-3.752-2.597l-1.083-5.952
					c-0.318-1.75,0.846-3.433,2.597-3.751l10.699-1.947c1.75-0.319,3.432,0.846,3.751,2.596l1.083,5.952
					C87.755,70.933,86.591,72.616,84.841,72.935z M72.103,63.676c-1.146,0.208-1.909,1.311-1.701,2.458l1.083,5.952
					c0.209,1.147,1.313,1.91,2.459,1.701l10.698-1.946c1.146-0.209,1.91-1.312,1.7-2.459l-1.083-5.952
					c-0.208-1.147-1.311-1.91-2.458-1.702L72.103,63.676z"/>
			</g>
			<g>
				<path fill="#FFFFFF" d="M89.669,101.771l-11.864,2.159c-0.242,0.044-0.474-0.117-0.518-0.359
					c-0.043-0.241,0.116-0.473,0.358-0.518l11.864-2.158c0.243-0.045,0.475,0.115,0.518,0.357
					C90.072,101.496,89.912,101.727,89.669,101.771z"/>
			</g>
			<g>
				<path fill="#FFFFFF" d="M114.668,88.887c-0.083,0.016-0.17,0.007-0.252-0.028c-0.227-0.096-0.333-0.356-0.237-0.583l3.014-7.144
					c0.096-0.226,0.356-0.332,0.584-0.237c0.226,0.096,0.332,0.357,0.236,0.583l-3.015,7.144
					C114.938,88.766,114.811,88.861,114.668,88.887z"/>
			</g>
			<g>
				<path fill="#FFFFFF" d="M116.563,96.876l-22.542,4.103c-0.243,0.044-0.474-0.116-0.519-0.358
					c-0.044-0.242,0.117-0.473,0.358-0.517L116.404,96c0.242-0.044,0.474,0.116,0.519,0.358
					C116.966,96.6,116.806,96.833,116.563,96.876z"/>
			</g>
			<g>
				<circle fill="#FFFFFF" cx="74.512" cy="84.33" r="1.342"/>
				<circle fill="#FFFFFF" cx="78.607" cy="83.584" r="1.342"/>
				<circle fill="#FFFFFF" cx="82.702" cy="82.839" r="1.342"/>
				<circle fill="#FFFFFF" cx="86.798" cy="82.094" r="1.342"/>
			</g>
			<g>
				<circle fill="#FFFFFF" cx="105.638" cy="86.894" r="1.342"/>
			</g>
			<g>
				<circle fill="#FFFFFF" cx="109.995" cy="86.101" r="1.342"/>
			</g>
			<g>
				<circle fill="#FFFFFF" cx="120.628" cy="84.166" r="1.342"/>
			</g>
			<g>
				<circle fill="#FFFFFF" cx="124.985" cy="83.373" r="1.342"/>
			</g>
			<g>
				<circle fill="#FFFFFF" cx="96.725" cy="80.287" r="1.341"/>
				<circle fill="#FFFFFF" cx="100.821" cy="79.542" r="1.341"/>
				<circle fill="#FFFFFF" cx="104.916" cy="78.797" r="1.341"/>
				<circle fill="#FFFFFF" cx="109.011" cy="78.051" r="1.342"/>
			</g>
			<g>
				<circle fill="#FFFFFF" cx="119.512" cy="76.14" r="1.342"/>
				<circle fill="#FFFFFF" cx="123.607" cy="75.394" r="1.342"/>
				<circle fill="#FFFFFF" cx="127.702" cy="74.649" r="1.342"/>
				<circle fill="#FFFFFF" cx="131.798" cy="73.904" r="1.342"/>
			</g>
			<g>
				<circle fill="#FFFFFF" cx="143.301" cy="71.81" r="1.342"/>
				<circle fill="#FFFFFF" cx="147.396" cy="71.065" r="1.342"/>
				<circle fill="#FFFFFF" cx="151.492" cy="70.32" r="1.342"/>
				<circle fill="#FFFFFF" cx="155.588" cy="69.574" r="1.342"/>
			</g>
		</g>
	</g>
	<g>
		<path opacity="0.6" fill="#565656" d="M210.673,121.929c-0.222,1.687-1.787,2.875-3.502,2.65L97.389,110.241
			c-1.713-0.223-2.924-1.772-2.703-3.459l7.718-59.095c0.221-1.687,1.788-2.875,3.501-2.65l109.783,14.338
			c1.714,0.224,2.923,1.773,2.702,3.46L210.673,121.929z"/>
		<linearGradient id="SVGID_3_" gradientUnits="userSpaceOnUse" x1="103.7378" y1="117.5088" x2="219.4886" y2="50.6801">
			<stop  offset="0.2611" style="stop-color:#5BBA4C"/>
			<stop  offset="1" style="stop-color:#74CBC9"/>
		</linearGradient>
		<path fill="url(#SVGID_3_)" d="M216.811,122.442c-0.229,1.748-1.83,2.981-3.58,2.752l-112.059-14.636
			c-1.749-0.228-2.981-1.83-2.753-3.579l7.998-61.233c0.228-1.748,1.831-2.981,3.58-2.752l112.06,14.635
			c1.749,0.229,2.98,1.831,2.752,3.579L216.811,122.442z"/>
		<g>
			<g>
				<path fill="#FFEC00" d="M128.992,71.076l-12.895-1.683c-2.109-0.275-3.602-2.216-3.326-4.326l0.937-7.174
					c0.275-2.109,2.216-3.601,4.326-3.326l12.895,1.685c2.109,0.275,3.601,2.215,3.326,4.325l-0.937,7.174
					C133.042,69.859,131.101,71.352,128.992,71.076z M117.861,55.886c-1.382-0.181-2.653,0.796-2.834,2.179l-0.937,7.174
					c-0.181,1.382,0.798,2.653,2.18,2.833l12.894,1.685c1.382,0.18,2.653-0.797,2.833-2.18l0.938-7.174
					c0.181-1.382-0.797-2.653-2.179-2.834L117.861,55.886z"/>
			</g>
			<g>
				<path fill="#FFFFFF" d="M123.975,105.681l-14.3-1.868c-0.291-0.039-0.497-0.306-0.458-0.598
					c0.039-0.291,0.305-0.497,0.597-0.459l14.3,1.869c0.292,0.038,0.498,0.305,0.459,0.596
					C124.534,105.513,124.267,105.718,123.975,105.681z"/>
			</g>
			<g>
				<path fill="#FFFFFF" d="M157.145,100.124c-0.1-0.013-0.195-0.054-0.276-0.124c-0.224-0.191-0.249-0.527-0.058-0.75l6.038-7.037
					c0.191-0.222,0.526-0.248,0.751-0.057c0.223,0.191,0.248,0.527,0.057,0.75l-6.038,7.037
					C157.496,100.083,157.317,100.146,157.145,100.124z"/>
			</g>
			<g>
				<path fill="#FFFFFF" d="M156.391,109.913l-27.171-3.548c-0.292-0.039-0.497-0.305-0.459-0.598
					c0.038-0.292,0.305-0.496,0.597-0.458l27.171,3.548c0.293,0.039,0.498,0.305,0.46,0.597
					C156.949,109.746,156.682,109.952,156.391,109.913z"/>
			</g>
			<g>
				<circle fill="#FFFFFF" cx="113.072" cy="80.288" r="1.604"/>
				<circle fill="#FFFFFF" cx="118.008" cy="80.932" r="1.605"/>
				<circle fill="#FFFFFF" cx="122.945" cy="81.577" r="1.605"/>
				<circle fill="#FFFFFF" cx="127.881" cy="82.222" r="1.605"/>
			</g>
			<g>
				<circle fill="#FFFFFF" cx="147.588" cy="94.56" r="1.604"/>
			</g>
			<g>
				<circle fill="#FFFFFF" cx="152.839" cy="95.245" r="1.605"/>
			</g>
			<g>
				<circle fill="#FFFFFF" cx="165.655" cy="96.919" r="1.604"/>
			</g>
			<g>
				<circle fill="#FFFFFF" cx="170.906" cy="97.605" r="1.605"/>
			</g>
			<g>
				<circle fill="#FFFFFF" cx="139.846" cy="83.785" r="1.604"/>
				<circle fill="#FFFFFF" cx="144.782" cy="84.429" r="1.604"/>
				<circle fill="#FFFFFF" cx="149.719" cy="85.074" r="1.604"/>
				<circle fill="#FFFFFF" cx="154.655" cy="85.719" r="1.605"/>
			</g>
			<g>
				<circle fill="#FFFFFF" cx="167.311" cy="87.372" r="1.605"/>
				<circle fill="#FFFFFF" cx="172.246" cy="88.016" r="1.605"/>
				<circle fill="#FFFFFF" cx="177.184" cy="88.661" r="1.605"/>
				<circle fill="#FFFFFF" cx="182.12" cy="89.306" r="1.605"/>
			</g>
			<g>
				<circle fill="#FFFFFF" cx="195.985" cy="91.116" r="1.604"/>
				<circle fill="#FFFFFF" cx="200.921" cy="91.761" r="1.604"/>
				<circle fill="#FFFFFF" cx="205.857" cy="92.406" r="1.604"/>
				<circle fill="#FFFFFF" cx="210.794" cy="93.051" r="1.604"/>
			</g>
		</g>
	</g>
	<g>
		<path opacity="0.6" fill="#565656" d="M273.601,145.694c0,1.915-1.611,3.467-3.6,3.467H142.572c-1.988,0-3.601-1.552-3.601-3.467
			V78.628c0-1.915,1.612-3.467,3.601-3.467h127.429c1.988,0,3.6,1.552,3.6,3.467V145.694z"/>
		<linearGradient id="SVGID_4_" gradientUnits="userSpaceOnUse" x1="144.5518" y1="148.2666" x2="273.8242" y2="73.6311">
			<stop  offset="0.3695" style="stop-color:#F05587"/>
			<stop  offset="1" style="stop-color:#FEC140"/>
		</linearGradient>
		<path fill="url(#SVGID_4_)" d="M276.856,145.562c0,1.988-1.611,3.6-3.6,3.6H145.826c-1.988,0-3.6-1.611-3.6-3.6V75.929
			c0-1.988,1.612-3.6,3.6-3.6h127.431c1.988,0,3.6,1.612,3.6,3.6V145.562z"/>
		<g>
			<g>
				<path fill="#FFFFFF" d="M171.166,100.954h-14.664c-2.398,0-4.35-1.952-4.35-4.35v-8.159c0-2.398,1.951-4.35,4.35-4.35h14.664
					c2.398,0,4.35,1.952,4.35,4.35v8.159C175.516,99.002,173.564,100.954,171.166,100.954z M156.502,85.595
					c-1.572,0-2.85,1.278-2.85,2.85v8.159c0,1.572,1.277,2.85,2.85,2.85h14.664c1.572,0,2.85-1.278,2.85-2.85v-8.159
					c0-1.572-1.277-2.85-2.85-2.85H156.502z"/>
			</g>
			<g>
				<path fill="#FFFFFF" d="M170.609,140.376h-16.262c-0.332,0-0.6-0.269-0.6-0.6s0.268-0.6,0.6-0.6h16.262
					c0.332,0,0.6,0.269,0.6,0.6S170.941,140.376,170.609,140.376z"/>
			</g>
			<g>
				<path fill="#FFFFFF" d="M206.885,129.32c-0.111,0-0.227-0.032-0.328-0.098c-0.277-0.181-0.354-0.553-0.172-0.831l5.723-8.75
					c0.182-0.276,0.553-0.354,0.83-0.173c0.277,0.181,0.355,0.553,0.174,0.831l-5.723,8.75
					C207.273,129.224,207.082,129.32,206.885,129.32z"/>
			</g>
			<g>
				<path fill="#FFFFFF" d="M207.471,140.376h-30.898c-0.332,0-0.6-0.269-0.6-0.6s0.268-0.6,0.6-0.6h30.898
					c0.332,0,0.602,0.269,0.602,0.6S207.803,140.376,207.471,140.376z"/>
			</g>
			<g>
				<circle fill="#FFFFFF" cx="154.711" cy="113.577" r="1.809"/>
				<circle fill="#FFFFFF" cx="160.324" cy="113.577" r="1.809"/>
				<circle fill="#FFFFFF" cx="165.938" cy="113.577" r="1.809"/>
				<circle fill="#FFFFFF" cx="171.551" cy="113.577" r="1.809"/>
			</g>
			<g>
				<circle fill="#FFFFFF" cx="195.388" cy="124.494" r="1.81"/>
			</g>
			<g>
				<circle fill="#FFFFFF" cx="201.358" cy="124.494" r="1.81"/>
			</g>
			<g>
				<circle fill="#FFFFFF" cx="215.933" cy="124.494" r="1.81"/>
			</g>
			<g>
				<circle fill="#FFFFFF" cx="221.904" cy="124.494" r="1.809"/>
			</g>
			<g>
				<circle fill="#FFFFFF" cx="185.157" cy="113.577" r="1.81"/>
				<circle fill="#FFFFFF" cx="190.771" cy="113.577" r="1.81"/>
				<circle fill="#FFFFFF" cx="196.384" cy="113.577" r="1.81"/>
				<circle fill="#FFFFFF" cx="201.997" cy="113.577" r="1.81"/>
			</g>
			<g>
				<circle fill="#FFFFFF" cx="216.39" cy="113.577" r="1.81"/>
				<circle fill="#FFFFFF" cx="222.003" cy="113.577" r="1.81"/>
				<circle fill="#FFFFFF" cx="227.616" cy="113.577" r="1.81"/>
				<circle fill="#FFFFFF" cx="233.229" cy="113.577" r="1.81"/>
			</g>
			<g>
				<circle fill="#FFFFFF" cx="248.997" cy="113.577" r="1.81"/>
				<circle fill="#FFFFFF" cx="254.61" cy="113.577" r="1.81"/>
				<circle fill="#FFFFFF" cx="260.224" cy="113.577" r="1.809"/>
				<circle fill="#FFFFFF" cx="265.837" cy="113.577" r="1.809"/>
			</g>
		</g>
	</g>
</g>
<rect fill="none" width="288" height="288"/>
</svg>
