<?xml version="1.0" encoding="utf-8"?>
<!-- Generator: Adobe Illustrator 16.0.0, SVG Export Plug-In . SVG Version: 6.00 Build 0)  -->
<!DOCTYPE svg PUBLIC "-//W3C//DTD SVG 1.1//EN" "http://www.w3.org/Graphics/SVG/1.1/DTD/svg11.dtd">
<svg version="1.1" xmlns="http://www.w3.org/2000/svg" xmlns:xlink="http://www.w3.org/1999/xlink" x="0px" y="0px" width="115.2px"
	 height="165.6px" viewBox="0 0 115.2 165.6" enable-background="new 0 0 115.2 165.6" xml:space="preserve">
<g id="Layer_4">
</g>
<g id="Layer_2">
	<g>
		<path fill="#FDA885" d="M20.294,166.095h87.166c0,0,4.481-21.715,1.18-34.686S97.083,90.612,93.783,88.726
			s-11.319-0.236-14.385-3.303c-3.065-3.064-8.489-5.658-16.743-4.008s-4.009-4.717-9.904-4.953s-10.141,2.123-12.027,2.123
			s-4.48-0.236-5.896-4.953S23.745,20.337,22.33,14.913S17.14,4.171,12.424,5.532c-4.716,1.363-6.366,5.137-4.716,15.275
			c1.65,10.141,10.936,71.453,12.586,74.756c0,0-15.181,14.387-14.945,18.631S9.063,153.144,20.294,166.095z"/>
		<path fill="none" stroke="#E28A64" stroke-linecap="round" stroke-linejoin="round" stroke-miterlimit="10" d="M8.837,9.966
			c0,0,1.167-1.5,4.167-2.168c3-0.666,4.5,0,4.5,0s1.667,6.834,2,7.834s-1.167,3.666-3.667,4c-2.5,0.334-4.333,0.334-5.333-2.5
			S8.837,9.966,8.837,9.966z"/>
		<path fill="none" stroke="#E28A64" stroke-linecap="round" stroke-linejoin="round" stroke-miterlimit="10" d="M14.193,28.966
			c1.978-0.168,3.724,0.332,6.101-1.668"/>
		<path fill="none" stroke="#E28A64" stroke-linecap="round" stroke-linejoin="round" stroke-miterlimit="10" d="M18.671,57.298
			c0,0,6,0.168,7-1.666"/>
		<path fill="none" stroke="#E28A64" stroke-linecap="round" stroke-linejoin="round" stroke-miterlimit="10" d="M21.504,60.298
			c0,0,4.292,0.07,7-1.5"/>
		<path fill="none" stroke="#E28A64" stroke-linecap="round" stroke-linejoin="round" stroke-miterlimit="10" d="M20.294,97.3
			c0,0,5.71,26.5,2.71,35.666"/>
		<path fill="none" stroke="#E28A64" stroke-linecap="round" stroke-linejoin="round" stroke-miterlimit="10" d="M22.085,108.3
			c0,0-7.083,5.666-4.415,5.666c2.667,0,3.834,1.166,3.834,1.166"/>
	</g>
	<rect fill="none" width="115.2" height="165.6"/>
</g>
<g id="Layer_3">
</g>
</svg>
